<?xml version="1.0" standalone="no"?>
<!DOCTYPE svg PUBLIC "-//W3C//DTD SVG 20010904//EN"
 "http://www.w3.org/TR/2001/REC-SVG-20010904/DTD/svg10.dtd">
<svg version="1.0" xmlns="http://www.w3.org/2000/svg"
 width="32" height="32" viewBox="0 0 1024.000000 1024.000000"
 preserveAspectRatio="xMidYMid meet">

<g transform="translate(0.000000,1024.000000) scale(0.100000,-0.100000)"
fill="currentColor" stroke="none">
<path d="M4925 8481 c-116 -31 -181 -62 -507 -242 -423 -233 -832 -459 -953
-529 -55 -31 -219 -121 -365 -199 -453 -245 -499 -274 -583 -373 -93 -112
-142 -201 -184 -335 l-28 -88 0 -1445 c0 -1329 1 -1451 17 -1522 49 -218 167
-413 326 -537 37 -29 191 -120 342 -203 311 -170 750 -413 1335 -738 219 -122
424 -233 455 -247 134 -59 342 -82 499 -53 140 25 224 66 851 418 113 63 365
204 560 312 633 351 788 438 842 473 177 114 322 319 380 537 l22 85 4 1400
c2 975 0 1425 -8 1484 -24 183 -104 352 -225 477 -84 86 -146 127 -410 269
-110 59 -222 121 -248 137 -44 26 -51 28 -71 15 -12 -8 -215 -120 -451 -249
-529 -289 -585 -320 -585 -327 0 -4 55 -35 123 -70 67 -35 172 -93 233 -128
61 -34 116 -63 121 -63 5 0 68 33 139 73 71 41 191 109 266 151 l137 77 38
-24 c21 -13 102 -59 181 -101 78 -43 142 -81 142 -85 0 -4 -48 -34 -107 -66
-60 -33 -220 -122 -358 -199 -472 -263 -481 -267 -566 -229 -24 11 -215 115
-424 232 -209 117 -469 263 -578 324 -156 87 -195 113 -185 122 14 13 482 273
736 410 89 48 162 90 162 94 0 4 -78 51 -172 104 -95 53 -200 112 -233 131
l-61 35 -74 -43 c-41 -24 -165 -93 -275 -153 -582 -319 -1055 -587 -1048 -593
4 -5 96 -55 203 -112 107 -58 278 -152 380 -210 102 -57 226 -126 275 -153 50
-27 153 -84 230 -128 77 -45 206 -118 288 -163 l147 -82 -247 -138 c-411 -228
-465 -266 -553 -382 -56 -76 -91 -144 -116 -229 -15 -51 -18 -125 -21 -617
l-4 -560 -211 -245 c-116 -135 -215 -247 -219 -249 -3 -2 -46 70 -94 160 -49
90 -132 244 -185 343 -238 441 -311 578 -369 687 l-61 118 0 430 c0 451 3 490
45 506 30 12 30 13 222 -346 236 -439 361 -676 367 -697 21 -67 26 2 26 335 0
393 5 435 61 545 65 129 138 190 355 299 79 40 143 77 141 82 -2 5 -66 44
-143 86 -76 41 -194 106 -262 143 -68 37 -128 67 -134 67 -6 0 -51 -24 -102
-54 -141 -85 -201 -109 -266 -109 -77 0 -129 25 -580 278 -80 45 -205 114
-278 154 -73 41 -132 75 -130 76 2 2 64 37 138 78 74 41 277 154 450 252 173
98 515 290 760 428 245 137 537 302 650 365 311 175 358 200 445 228 160 52
375 47 562 -12 39 -12 -24 28 -157 101 -211 116 -358 183 -444 205 -105 26
-281 27 -381 1z m-1930 -2270 c157 -75 286 -286 288 -471 1 -129 -48 -190
-152 -190 -97 0 -203 75 -290 206 -148 221 -116 484 59 484 19 0 62 -13 95
-29z m4433 2 c50 -36 64 -78 59 -178 -3 -49 -12 -113 -20 -140 -37 -116 -156
-264 -256 -318 -174 -95 -293 24 -248 246 45 222 238 427 390 414 27 -2 61
-13 75 -24z m-792 -477 l34 -34 0 -289 c0 -328 -4 -351 -68 -437 -49 -64 -92
-93 -342 -231 -107 -59 -230 -127 -272 -152 l-78 -45 0 -287 0 -287 -27 -55
c-56 -111 -186 -209 -281 -209 -35 0 -49 6 -73 29 l-29 29 0 484 c0 302 4 497
10 520 14 50 64 114 120 154 25 17 172 103 328 189 l282 157 0 72 c0 178 87
328 231 400 75 37 122 35 165 -8z m-3622 -554 c61 -33 163 -143 204 -220 86
-162 86 -352 0 -415 -43 -32 -123 -34 -183 -6 -107 49 -227 205 -269 348 -42
144 4 292 100 321 40 12 91 2 148 -28z m4410 -2 c48 -43 60 -84 54 -199 -7
-116 -29 -181 -98 -279 -82 -116 -179 -181 -273 -182 -66 0 -105 22 -127 73
-46 103 -35 213 36 355 79 161 203 262 321 262 44 0 58 -5 87 -30z m-4439
-1031 c68 -25 153 -104 213 -197 108 -167 120 -377 26 -449 -130 -99 -358 67
-447 326 -25 71 -29 96 -25 152 6 81 36 138 87 167 46 27 76 27 146 1z m4405
5 c51 -21 79 -59 90 -128 22 -135 -40 -302 -157 -427 -80 -84 -145 -121 -219
-123 -64 -1 -99 21 -131 84 -88 172 85 521 296 596 48 18 73 17 121 -2z
m-3602 -425 c67 -29 171 -140 220 -235 120 -233 83 -434 -81 -434 -70 0 -132
36 -218 128 -143 151 -206 354 -150 477 42 93 117 114 229 64z m2837 -1 c83
-65 87 -237 9 -397 -46 -93 -154 -210 -230 -247 -190 -93 -301 67 -215 312 48
138 159 280 260 334 52 28 140 27 176 -2z m-2115 -386 c57 -26 181 -158 222
-237 119 -229 90 -425 -65 -442 -117 -14 -305 167 -370 356 -11 31 -22 89 -25
129 -12 176 92 261 238 194z m1377 -2 c66 -40 88 -110 72 -229 -14 -99 -40
-165 -98 -247 -94 -134 -191 -203 -283 -204 -52 0 -97 29 -123 81 -20 38 -19
161 1 230 45 152 162 307 273 362 65 32 114 34 158 7z"/>
</g>
</svg>
