<svg width="32" height="32" viewBox="0 0 15 15" fill="none" xmlns="http://www.w3.org/2000/svg">
<g clip-path="url(#clip0_43_170)">
<path d="M8.14969 2.07248C7.9074 2.08581 7.71157 2.1031 7.56219 2.12435C7.09344 2.19144 6.60647 2.32352 6.10126 2.5206C4.81969 3.02029 3.70219 3.9881 3.02219 5.18154C2.95803 5.29404 2.89709 5.40019 2.83938 5.49998C2.45584 5.33414 2.07459 5.16956 1.69563 5.00623C1.65751 4.98977 1.62105 4.9681 1.58626 4.94123C1.57772 4.93456 1.57282 4.92581 1.57157 4.91498C1.56824 4.88456 1.57365 4.85612 1.58782 4.82966C2.04501 3.9731 2.69376 3.19498 3.4222 2.57435C4.17907 1.92935 5.04709 1.45852 6.02626 1.16185C6.43376 1.03873 6.85907 0.93779 7.28251 0.88279C7.51772 0.852373 7.72063 0.829456 7.89126 0.81404C8.00313 0.803727 8.15563 0.793415 8.1572 0.953103C8.16032 1.24123 8.15782 1.61435 8.14969 2.07248Z" fill="#1DC8C7"/>
<path d="M2.22311 7.2875C2.31936 6.83854 2.45478 6.39312 2.62936 5.95125L2.83936 5.5C2.89707 5.40021 2.95801 5.29406 3.02217 5.18156C3.70217 3.98812 4.81967 3.02031 6.10124 2.52062C6.60645 2.32354 7.09342 2.19146 7.56217 2.12437C7.71155 2.10312 7.90738 2.08583 8.14967 2.0725C8.33197 2.06416 8.45655 2.06 8.52343 2.06C10.1041 2.06156 11.6484 2.65406 12.7969 3.74531C13.5081 4.42062 14.0544 5.225 14.4066 6.15562C14.8603 7.35468 14.9756 8.64406 14.6919 9.87875C14.3639 11.3062 13.6402 12.4946 12.5206 13.4437C12.2229 13.6962 11.8542 13.9376 11.4144 14.1678C10.9973 14.3864 10.5886 14.5483 10.1884 14.6537C8.62718 15.0656 6.94842 14.9003 5.50749 14.1662C4.29467 13.5481 3.2778 12.4891 2.72061 11.2459C2.16228 9.99968 1.99645 8.68021 2.22311 7.2875Z" fill="#FFFEFE"/>
<path d="M4.41564 12.7475C4.27731 12.6133 4.17044 12.5039 4.09502 12.4194C3.57856 11.8392 3.18856 11.1717 2.92502 10.4169C2.86127 10.2342 2.80929 10.0406 2.76908 9.83623C2.55033 8.72811 2.58596 7.53998 2.96064 6.4828C3.23002 5.72301 3.63221 5.04644 4.16721 4.45311C4.32096 4.28269 4.46939 4.13488 4.61252 4.00967C5.32273 3.38905 6.13856 2.96717 7.06002 2.74405C8.13564 2.48373 9.34908 2.50623 10.416 2.88936C12.1385 3.50748 13.5081 4.9153 14.0463 6.6553C14.2275 7.24134 14.323 7.86582 14.3328 8.52873C14.3357 8.73832 14.3249 8.94811 14.3003 9.15811C14.1003 10.8609 13.2 12.3744 11.8072 13.3584C10.5878 14.2197 9.03533 14.5453 7.56814 14.3169C6.35106 14.1273 5.30023 13.6042 4.41564 12.7475Z" fill="#1DC8C7"/>
<path d="M10.0816 12.6125C9.53127 12.8432 8.95064 12.9178 8.33752 12.9053C7.75731 12.8935 7.20804 12.7661 6.68971 12.5232C5.87471 12.1411 5.22387 11.5728 4.73721 10.8185C4.28064 10.1103 4.10033 9.27222 4.10564 8.43565C4.11064 7.63753 4.30648 6.91065 4.69314 6.25503C5.35908 5.1269 6.43314 4.34472 7.72752 4.10878C8.60721 3.94847 9.53877 4.05659 10.3485 4.44753C11.8197 5.15815 12.7825 6.54847 12.8616 8.19347C12.9066 9.12555 12.6907 9.99097 12.2141 10.7897C12.1166 10.9533 11.9991 11.1189 11.8616 11.2866C11.378 11.8758 10.7847 12.3177 10.0816 12.6125Z" fill="#283D4F"/>
<path d="M8.8964 8.00484C8.89684 8.1299 8.84758 8.25002 8.75945 8.33876C8.67132 8.4275 8.55155 8.4776 8.42649 8.47804L8.39962 8.47814C8.27455 8.47857 8.15443 8.42931 8.06569 8.34118C7.97695 8.25306 7.92685 8.13329 7.92641 8.00822L7.91669 5.22324C7.91625 5.09817 7.96552 4.97806 8.05364 4.88932C8.14177 4.80057 8.26154 4.75047 8.3866 4.75004L8.41348 4.74994C8.53854 4.74951 8.65866 4.79877 8.7474 4.88689C8.83615 4.97502 8.88625 5.09479 8.88668 5.21985L8.8964 8.00484Z" fill="#FFFEFE"/>
<path d="M2.62939 5.95124C2.4548 6.39312 2.31939 6.83854 2.22314 7.28749L0.864072 7.01499C0.854847 7.01311 0.846633 7.00793 0.840988 7.00044C0.835343 6.99295 0.83266 6.98368 0.833448 6.97437C0.845531 6.82437 0.866989 6.67666 0.897823 6.53124C0.966885 6.20718 1.03907 5.85374 1.16345 5.56312C1.20074 5.47583 1.26772 5.44874 1.36439 5.48187C1.60522 5.56458 1.85251 5.64968 2.10626 5.73718C2.19584 5.76822 2.37022 5.83958 2.62939 5.95124Z" fill="#1DC8C7"/>
<path d="M8.26626 8.99124C8.38063 9.1103 8.56001 9.09999 8.66876 8.98874C9.03292 8.61686 9.41355 8.24082 9.81063 7.86061C10.1516 7.53405 10.4806 7.19874 10.8059 6.86093C10.8994 6.76374 11.0728 6.68999 11.1691 6.82655C11.2212 6.90051 11.2648 6.98093 11.3 7.0678C11.6435 7.91718 11.6447 8.74728 11.3034 9.55811C10.8875 10.5456 9.95344 11.2928 8.88657 11.4312C8.00532 11.5456 7.17094 11.3009 6.48657 10.7472C5.37907 9.85124 5.02407 8.15468 5.70094 6.9228C5.78282 6.77374 5.93063 6.69655 6.08094 6.82436C6.20501 6.92936 6.31126 7.05249 6.42813 7.16624C7.05438 7.77499 7.6472 8.34842 8.26626 8.99124Z" fill="#FFFEFE"/>
</g>
<defs>
<clipPath id="clip0_43_170">
<rect width="15" height="15" fill="white"/>
</clipPath>
</defs>
</svg>
